<svg width="50" height="50" viewBox="0 0 50 50" fill="none" xmlns="http://www.w3.org/2000/svg">
<mask id="path-1-inside-1_531_3353" fill="white">
<path fill-rule="evenodd" clip-rule="evenodd" d="M9.90025 9C13.8403 5.28031 19.1538 3 25 3C37.1503 3 47 12.8497 47 25C47 37.1503 37.1503 47 25 47C19.6977 47 14.8335 45.1242 11.0348 42H20.8389C21.6674 42 22.3389 41.3284 22.3389 40.5C22.3389 39.6716 21.6674 39 20.8389 39H8.02865C7.03724 37.7995 6.17073 36.4921 5.44904 35.0976L27.4506 35.0974C28.2791 35.0974 28.9506 34.4258 28.9506 33.5974C28.9506 32.7689 28.2791 32.0974 27.4506 32.0974L4.17004 32.0976C3.72232 30.7833 3.3955 29.413 3.20284 28H10.5C11.3284 28 12 27.3284 12 26.5C12 25.6716 11.3284 25 10.5 25H3C3 23.1791 3.22121 21.4099 3.63824 19.7178L27.5 19.7178C28.3284 19.7178 29 19.0462 29 18.2178C29 17.3893 28.3284 16.7178 27.5 16.7178L4.61225 16.7178C5.29829 15.0307 6.18765 13.448 7.24992 12H20.8389C21.6674 12 22.3389 11.3284 22.3389 10.5C22.3389 9.67157 21.6674 9 20.8389 9H9.90025ZM21 26.5C21 27.3284 21.6715 28 22.5 28H38.5C39.3284 28 40 27.3284 40 26.5C40 25.6716 39.3284 25 38.5 25H22.5C21.6715 25 21 25.6716 21 26.5ZM14.9322 26.5C14.9322 25.6716 15.6045 25 16.4337 25C17.2629 25 17.9352 25.6716 17.9352 26.5C17.9352 27.3284 17.2629 28 16.4337 28C15.6045 28 14.9322 27.3284 14.9322 26.5ZM26.8835 9C26.0542 9 25.382 9.67157 25.382 10.5C25.382 11.3284 26.0542 12 26.8835 12C27.7127 12 28.3849 11.3284 28.3849 10.5C28.3849 9.67157 27.7127 9 26.8835 9ZM25.382 40.5C25.382 39.6716 26.0542 39 26.8835 39C27.7127 39 28.3849 39.6716 28.3849 40.5C28.3849 41.3284 27.7127 42 26.8835 42C26.0542 42 25.382 41.3284 25.382 40.5Z"/>
</mask>
<path fill-rule="evenodd" clip-rule="evenodd" d="M9.90025 9C13.8403 5.28031 19.1538 3 25 3C37.1503 3 47 12.8497 47 25C47 37.1503 37.1503 47 25 47C19.6977 47 14.8335 45.1242 11.0348 42H20.8389C21.6674 42 22.3389 41.3284 22.3389 40.5C22.3389 39.6716 21.6674 39 20.8389 39H8.02865C7.03724 37.7995 6.17073 36.4921 5.44904 35.0976L27.4506 35.0974C28.2791 35.0974 28.9506 34.4258 28.9506 33.5974C28.9506 32.7689 28.2791 32.0974 27.4506 32.0974L4.17004 32.0976C3.72232 30.7833 3.3955 29.413 3.20284 28H10.5C11.3284 28 12 27.3284 12 26.5C12 25.6716 11.3284 25 10.5 25H3C3 23.1791 3.22121 21.4099 3.63824 19.7178L27.5 19.7178C28.3284 19.7178 29 19.0462 29 18.2178C29 17.3893 28.3284 16.7178 27.5 16.7178L4.61225 16.7178C5.29829 15.0307 6.18765 13.448 7.24992 12H20.8389C21.6674 12 22.3389 11.3284 22.3389 10.5C22.3389 9.67157 21.6674 9 20.8389 9H9.90025ZM21 26.5C21 27.3284 21.6715 28 22.5 28H38.5C39.3284 28 40 27.3284 40 26.5C40 25.6716 39.3284 25 38.5 25H22.5C21.6715 25 21 25.6716 21 26.5ZM14.9322 26.5C14.9322 25.6716 15.6045 25 16.4337 25C17.2629 25 17.9352 25.6716 17.9352 26.5C17.9352 27.3284 17.2629 28 16.4337 28C15.6045 28 14.9322 27.3284 14.9322 26.5ZM26.8835 9C26.0542 9 25.382 9.67157 25.382 10.5C25.382 11.3284 26.0542 12 26.8835 12C27.7127 12 28.3849 11.3284 28.3849 10.5C28.3849 9.67157 27.7127 9 26.8835 9ZM25.382 40.5C25.382 39.6716 26.0542 39 26.8835 39C27.7127 39 28.3849 39.6716 28.3849 40.5C28.3849 41.3284 27.7127 42 26.8835 42C26.0542 42 25.382 41.3284 25.382 40.5Z" fill="white"/>
<path d="M9.90025 9V9.8799H7.68647L9.29621 8.36018L9.90025 9ZM11.0348 42L10.4758 42.6796L8.57968 41.1201H11.0348V42ZM8.02865 39V39.8799H7.61415L7.3502 39.5603L8.02865 39ZM5.44904 35.0976L4.66759 35.502L4.00293 34.2177L5.44904 34.2177L5.44904 35.0976ZM27.4506 35.0974L27.4506 35.9773L27.4506 35.0974ZM27.4506 32.0974L27.4506 32.9773L27.4506 32.0974ZM4.17004 32.0976L4.17005 32.9775L3.54023 32.9775L3.33714 32.3813L4.17004 32.0976ZM3.20284 28L2.33101 28.1189L2.19482 27.1201H3.20284V28ZM3 25V25.8799H2.1201V25H3ZM3.63824 19.7178L2.7839 19.5072L2.94886 18.8379H3.63824V19.7178ZM4.61225 16.7178V17.5977H3.30458L3.79716 16.3863L4.61225 16.7178ZM7.24992 12L6.54047 11.4795L6.80415 11.1201H7.24992V12ZM25 3.8799C19.3873 3.8799 14.2875 6.06816 10.5043 9.63982L9.29621 8.36018C13.3931 4.49245 18.9204 2.1201 25 2.1201V3.8799ZM46.1201 25C46.1201 13.3357 36.6643 3.8799 25 3.8799V2.1201C37.6362 2.1201 47.8799 12.3638 47.8799 25H46.1201ZM25 46.1201C36.6643 46.1201 46.1201 36.6643 46.1201 25H47.8799C47.8799 37.6362 37.6362 47.8799 25 47.8799V46.1201ZM11.5937 41.3204C15.2407 44.3199 19.9089 46.1201 25 46.1201V47.8799C19.4864 47.8799 14.4262 45.9285 10.4758 42.6796L11.5937 41.3204ZM20.8389 42.8799H11.0348V41.1201H20.8389V42.8799ZM23.2188 40.5C23.2188 41.8144 22.1533 42.8799 20.8389 42.8799V41.1201C21.1814 41.1201 21.459 40.8425 21.459 40.5H23.2188ZM20.8389 38.1201C22.1533 38.1201 23.2188 39.1856 23.2188 40.5H21.459C21.459 40.1575 21.1814 39.8799 20.8389 39.8799V38.1201ZM8.02865 38.1201H20.8389V39.8799H8.02865V38.1201ZM6.23049 34.6932C6.92323 36.0317 7.75511 37.287 8.70709 38.4397L7.3502 39.5603C6.31936 38.3121 5.41823 36.9525 4.66759 35.502L6.23049 34.6932ZM27.4506 35.9773L5.44905 35.9775L5.44904 34.2177L27.4506 34.2175L27.4506 35.9773ZM29.8305 33.5974C29.8305 34.9117 28.765 35.9773 27.4506 35.9773L27.4506 34.2175C27.7931 34.2175 28.0707 33.9398 28.0707 33.5974H29.8305ZM27.4506 31.2175C28.765 31.2175 29.8305 32.283 29.8305 33.5974H28.0707C28.0707 33.2549 27.7931 32.9773 27.4506 32.9773L27.4506 31.2175ZM4.17004 31.2177L27.4506 31.2175L27.4506 32.9773L4.17005 32.9775L4.17004 31.2177ZM4.07467 27.8811C4.25961 29.2375 4.57329 30.5526 5.00294 31.8139L3.33714 32.3813C2.87135 31.0139 2.53139 29.5885 2.33101 28.1189L4.07467 27.8811ZM10.5 28.8799H3.20284V27.1201H10.5V28.8799ZM12.8799 26.5C12.8799 27.8144 11.8144 28.8799 10.5 28.8799V27.1201C10.8425 27.1201 11.1201 26.8425 11.1201 26.5H12.8799ZM10.5 24.1201C11.8144 24.1201 12.8799 25.1856 12.8799 26.5H11.1201C11.1201 26.1575 10.8425 25.8799 10.5 25.8799V24.1201ZM3 24.1201H10.5V25.8799H3V24.1201ZM4.49257 19.9283C4.0924 21.5521 3.8799 23.2506 3.8799 25H2.1201C2.1201 23.1076 2.35003 21.2677 2.7839 19.5072L4.49257 19.9283ZM27.5 20.5977L3.63824 20.5977V18.8379L27.5 18.8379V20.5977ZM29.8799 18.2178C29.8799 19.5322 28.8144 20.5977 27.5 20.5977V18.8379C27.8425 18.8379 28.1201 18.5602 28.1201 18.2178H29.8799ZM27.5 15.8379C28.8144 15.8379 29.8799 16.9034 29.8799 18.2178H28.1201C28.1201 17.8753 27.8425 17.5977 27.5 17.5977V15.8379ZM4.61225 15.8379L27.5 15.8379V17.5977L4.61225 17.5977V15.8379ZM7.95937 12.5205C6.93943 13.9107 6.08574 15.4301 5.42733 17.0492L3.79716 16.3863C4.51083 14.6313 5.43587 12.9852 6.54047 11.4795L7.95937 12.5205ZM20.8389 12.8799H7.24992V11.1201H20.8389V12.8799ZM23.2188 10.5C23.2188 11.8144 22.1533 12.8799 20.8389 12.8799V11.1201C21.1814 11.1201 21.459 10.8425 21.459 10.5H23.2188ZM20.8389 8.1201C22.1533 8.1201 23.2188 9.18562 23.2188 10.5H21.459C21.459 10.1575 21.1814 9.8799 20.8389 9.8799V8.1201ZM9.90025 8.1201H20.8389V9.8799H9.90025V8.1201ZM22.5 28.8799C21.1856 28.8799 20.1201 27.8144 20.1201 26.5H21.8799C21.8799 26.8425 22.1575 27.1201 22.5 27.1201V28.8799ZM38.5 28.8799H22.5V27.1201H38.5V28.8799ZM40.8799 26.5C40.8799 27.8144 39.8144 28.8799 38.5 28.8799V27.1201C38.8424 27.1201 39.1201 26.8425 39.1201 26.5H40.8799ZM38.5 24.1201C39.8144 24.1201 40.8799 25.1856 40.8799 26.5H39.1201C39.1201 26.1575 38.8424 25.8799 38.5 25.8799V24.1201ZM22.5 24.1201H38.5V25.8799H22.5V24.1201ZM20.1201 26.5C20.1201 25.1856 21.1856 24.1201 22.5 24.1201V25.8799C22.1575 25.8799 21.8799 26.1575 21.8799 26.5H20.1201ZM16.4337 25.8799C16.0896 25.8799 15.8121 26.1583 15.8121 26.5H14.0523C14.0523 25.1848 15.1193 24.1201 16.4337 24.1201V25.8799ZM17.0553 26.5C17.0553 26.1583 16.7778 25.8799 16.4337 25.8799V24.1201C17.7481 24.1201 18.8151 25.1848 18.8151 26.5L17.0553 26.5ZM16.4337 27.1201C16.7778 27.1201 17.0553 26.8417 17.0553 26.5L18.8151 26.5C18.8151 27.8152 17.7481 28.8799 16.4337 28.8799V27.1201ZM15.8121 26.5C15.8121 26.8417 16.0896 27.1201 16.4337 27.1201V28.8799C15.1193 28.8799 14.0523 27.8152 14.0523 26.5H15.8121ZM24.5021 10.5C24.5021 9.18481 25.5691 8.1201 26.8835 8.1201V9.8799C26.5394 9.8799 26.2619 10.1583 26.2619 10.5H24.5021ZM26.8835 12.8799C25.5691 12.8799 24.5021 11.8152 24.5021 10.5H26.2619C26.2619 10.8417 26.5394 11.1201 26.8835 11.1201V12.8799ZM29.2648 10.5C29.2648 11.8152 28.1978 12.8799 26.8835 12.8799V11.1201C27.2276 11.1201 27.505 10.8417 27.505 10.5H29.2648ZM26.8835 8.1201C28.1978 8.1201 29.2648 9.18481 29.2648 10.5H27.505C27.505 10.1583 27.2276 9.8799 26.8835 9.8799V8.1201ZM26.8835 39.8799C26.5394 39.8799 26.2619 40.1583 26.2619 40.5H24.5021C24.5021 39.1848 25.5691 38.1201 26.8835 38.1201V39.8799ZM27.505 40.5C27.505 40.1583 27.2276 39.8799 26.8835 39.8799V38.1201C28.1978 38.1201 29.2648 39.1848 29.2648 40.5H27.505ZM26.8835 41.1201C27.2276 41.1201 27.505 40.8417 27.505 40.5H29.2648C29.2648 41.8152 28.1978 42.8799 26.8835 42.8799V41.1201ZM26.2619 40.5C26.2619 40.8417 26.5394 41.1201 26.8835 41.1201V42.8799C25.5691 42.8799 24.5021 41.8152 24.5021 40.5H26.2619Z" fill="url(#paint0_linear_531_3353)" mask="url(#path-1-inside-1_531_3353)"/>
<defs>
<linearGradient id="paint0_linear_531_3353" x1="42" y1="11.5" x2="41.4444" y2="45.9741" gradientUnits="userSpaceOnUse">
<stop stop-color="#C0BCFD"/>
<stop offset="0.262629" stop-color="#FFC3C1"/>
<stop offset="0.567861" stop-color="#F4B8B6"/>
<stop offset="0.963227" stop-color="#F9B691"/>
</linearGradient>
</defs>
</svg>
