<svg width="50" height="50" viewBox="0 0 50 50" fill="none" xmlns="http://www.w3.org/2000/svg">
    <path fill-rule="evenodd" clip-rule="evenodd" d="M24.9997 47C37.1501 47 47 37.1503 47 25C47 12.8497 37.1501 3 24.9997 3C17.6062 3 11.0645 6.64709 7.07557 12.2404H15.2161C16.1882 12.2404 16.9761 13.0283 16.9761 14.0004C16.9761 14.9724 16.1882 15.7604 15.2161 15.7604H5.02797C4.63329 16.612 4.29148 17.4932 4.00677 18.3996H28.1575C29.1295 18.3996 29.9175 19.1876 29.9175 20.1596C29.9175 21.1316 29.1295 21.9196 28.1575 21.9196H3.21342C3.07938 22.8762 3.00686 23.8526 3 24.8446H11.5927C12.5647 24.8446 13.3527 25.6326 13.3527 26.6046C13.3527 27.5766 12.5647 28.3646 11.5927 28.3646H3.25513C3.40146 29.3181 3.609 30.2514 3.87362 31.1604H28.1575C29.1295 31.1604 29.9175 31.9483 29.9175 32.9204C29.9175 33.8924 29.1295 34.6804 28.1575 34.6804H5.2382C5.75844 35.7403 6.36145 36.7523 7.0388 37.7079H15.2161C16.1882 37.7079 16.9761 38.4959 16.9761 39.4679C16.9761 40.44 16.1882 41.2279 15.2161 41.2279H10.1449C14.0589 44.8126 19.2739 47 24.9997 47ZM32.9901 34.6804C32.0181 34.6804 31.2301 33.8924 31.2301 32.9204C31.2301 31.9483 32.0181 31.1604 32.9901 31.1604C33.9622 31.1604 34.7502 31.9483 34.7502 32.9204C34.7502 33.8924 33.9622 34.6804 32.9901 34.6804ZM31.2301 20.1596C31.2301 21.1316 32.0181 21.9196 32.9901 21.9196C33.9622 21.9196 34.7502 21.1316 34.7502 20.1596C34.7502 19.1876 33.9622 18.3996 32.9901 18.3996C32.0181 18.3996 31.2301 19.1876 31.2301 20.1596ZM18.0115 39.4791C18.0115 40.4511 18.7995 41.2391 19.7715 41.2391C20.7435 41.2391 21.5315 40.4511 21.5315 39.4791C21.5315 38.5071 20.7435 37.7191 19.7715 37.7191C18.7995 37.7191 18.0115 38.5071 18.0115 39.4791ZM19.7714 15.7604C18.7994 15.7604 18.0114 14.9724 18.0114 14.0004C18.0114 13.0283 18.7994 12.2404 19.7714 12.2404C20.7435 12.2404 21.5315 13.0283 21.5315 14.0004C21.5315 14.9724 20.7435 15.7604 19.7714 15.7604ZM19.849 26.6046C19.849 27.5766 20.637 28.3646 21.609 28.3646H41.4035C42.3755 28.3646 43.1635 27.5766 43.1635 26.6046C43.1635 25.6326 42.3755 24.8446 41.4035 24.8446H21.609C20.637 24.8446 19.849 25.6326 19.849 26.6046ZM16.5879 28.3646C15.6159 28.3646 14.8279 27.5766 14.8279 26.6046C14.8279 25.6326 15.6159 24.8446 16.5879 24.8446C17.5599 24.8446 18.3479 25.6326 18.3479 26.6046C18.3479 27.5766 17.5599 28.3646 16.5879 28.3646Z" fill="url(#paint0_linear_531_3294)"/>
    <circle cx="25" cy="25" r="24.5" stroke="url(#paint1_linear_531_3294)"/>
    <defs>
    <linearGradient id="paint0_linear_531_3294" x1="39.0799" y1="8.5" x2="24.7187" y2="46.8949" gradientUnits="userSpaceOnUse">
    <stop offset="0.0657005" stop-color="#B6B2ED"/>
    <stop offset="0.268082" stop-color="#DAB9C9"/>
    <stop offset="0.490779" stop-color="#ECBBBA"/>
    <stop offset="0.741032" stop-color="#FBA994"/>
    <stop offset="1" stop-color="#FA9A65"/>
    </linearGradient>
    <linearGradient id="paint1_linear_531_3294" x1="46.0191" y1="9.74721e-06" x2="0.962203" y2="0.851679" gradientUnits="userSpaceOnUse">
    <stop stop-color="#B6B2ED"/>
    <stop offset="0.354395" stop-color="#ECBBBA"/>
    <stop offset="0.656602" stop-color="#F5AB82"/>
    <stop offset="0.861916" stop-color="#B6B2ED"/>
    <stop offset="1" stop-color="#FBA994"/>
    </linearGradient>
    </defs>
    </svg>
    